<mxfile>
  <diagram name="Classe Carros">
    <mxGraphModel dx="1000" dy="800" grid="1" gridSize="10" guides="1" tooltips="1" connect="1">
      <root>
        <mxCell id="0" />
        <mxCell id="1" parent="0" />
        <!-- Classe -->
        <mxCell id="2" value="Carros" style="text;align=center;fontStyle=1;" vertex="1" parent="1">
          <mxGeometry x="100" y="100" width="200" height="40" as="geometry" />
        </mxCell>
        <!-- Linha separadora -->
        <mxCell id="3" style="line;strokeColor=#000000;" edge="1" parent="1">
          <mxGeometry x="100" y="140" width="200" height="2" as="geometry" />
        </mxCell>
        <!-- Atributos -->
        <mxCell id="4" value="marca: String" style="text;html=1;" vertex="1" parent="1">
          <mxGeometry x="100" y="142" width="200" height="20" as="geometry" />
        </mxCell>
        <mxCell id="5" value="modelo : String" style="text;html=1;" vertex="1" parent="1">
          <mxGeometry x="100" y="162" width="200" height="20" as="geometry" />
        </mxCell>
        <mxCell id="6" value="ano : date" style="text;html=1;" vertex="1" parent="1">
          <mxGeometry x="100" y="182" width="200" height="20" as="geometry" />
        </mxCell>
        <!-- Outra linha separadora -->
        <mxCell id="7" style="line;strokeColor=#000000;" edge="1" parent="1">
          <mxGeometry x="100" y="202" width="200" height="2" as="geometry" />
        </mxCell>
        <!-- MÃ©todos -->
        <mxCell id="8" value="ligar()" style="text;html=1;" vertex="1" parent="1">
          <mxGeometry x="100" y="204" width="200" height="20" as="geometry" />
        </mxCell>
        <mxCell id="9" value="acelerar()" style="text;html=1;" vertex="1" parent="1">
          <mxGeometry x="100" y="224" width="200" height="20" as="geometry" />
        </mxCell>
        <mxCell id="10" value="frear()" style="text;html=1;" vertex="1" parent="1">
          <mxGeometry x="100" y="244" width="200" height="20" as="geometry" />
        </mxCell>
      </root>
    </mxGraphModel>
  </diagram>
</mxfile>